<svg xmlns="http://www.w3.org/2000/svg" class="prefix__thumbnail-icon" viewBox="0 0 200 200">
    <defs>
        <linearGradient id="myGradient" gradientTransform="rotate(90)">
        <stop offset="0%" stop-color="#F36C7B" />
        <stop offset="100%" stop-color="#F69862" />
        </linearGradient>
        <linearGradient id="myGradient2" gradientTransform="rotate(90)">
        <stop offset="0%" stop-color="#EF2A82" />
        <stop offset="100%" stop-color="#8794BA" />
        </linearGradient>
    </defs>
    <path
        d="M101.765 87.992l40.97-43.996-.08-.086L101.765 0zM90.624 30.194l2.133 60.084-62.216-62.239 59.966 2.151zm79.182 60.43l-60.084 2.133 62.239-62.216-2.151 59.966zm-81.814 7.611l-43.996-40.97-.086.08L0 98.235zm19.557 1.387c0 1.908-.675 3.538-2.024 4.887-1.35 1.35-2.979 2.025-4.888 2.025-1.908 0-3.537-.675-4.887-2.025-1.35-1.35-2.024-2.979-2.024-4.887 0-1.909.674-3.538 2.024-4.888s2.979-2.024 4.887-2.024c1.91 0 3.538.675 4.888 2.024 1.35 1.35 2.024 2.98 2.024 4.888zm4.46 2.143l43.995 40.97.086-.08 43.91-40.89zm-81.815 7.611l60.084-2.133-62.239 62.216 2.151-59.966zm79.182 60.43l-2.133-60.084 62.216 62.239-59.966-2.151zm-11.141-57.798l-40.97 43.996.08.086L98.235 200z"
        fill="url(#myGradient2)"
        data-paper-data="{&quot;fillRule&quot;:&quot;evenodd&quot;,&quot;isIcon&quot;:&quot;true&quot;,&quot;iconType&quot;:&quot;icon&quot;,&quot;rawIconId&quot;:&quot;1166831&quot;,&quot;selectedEffects&quot;:{&quot;container&quot;:&quot;&quot;,&quot;transformation&quot;:&quot;&quot;,&quot;pattern&quot;:&quot;&quot;},&quot;isDetailed&quot;:false,&quot;bounds&quot;:{&quot;x&quot;:200.23265547294307,&quot;y&quot;:114.99999999999997,&quot;width&quot;:149.53468905411387,&quot;height&quot;:149.53468905411395},&quot;iconStyle&quot;:&quot;standalone&quot;}" />
</svg>